PathFileType	4	(X/Y/Z)	Kaydara																																																																																																																									
DataRate	CameraRate	NumFrames	NumMarkers	Units	OrigDataRate	OrigDataStartFrame	OrigNumFrames																																																																																																																					
30	30	6	41	mm	30	17	128																																																																																																																					
Frame#	Time	EMLA_LFHD			EMLA_RFHD			EMLA_LBHD			EMLA_RBHD			EMLA_LFTShould			EMLA_RFTShould			EMLA_LRRShould			EMLA_RRRShould			EMLA_T10			EMLA_STRN			EMLA_TRUN			EMLA_LSHO			EMLA_LUPA			EMLA_LELB			EMLA_LFRM			EMLA_LWRA			EMLA_LWRB			EMLA_LFIN			EMLA_RSHO			EMLA_RUPA			EMLA_RELB			EMLA_RFRM			EMLA_RWRA			EMLA_RWRB			EMLA_RFIN			EMLA_LFWT			EMLA_RFWT			EMLA_LBWT			EMLA_RBWT			EMLA_LTHI			EMLA_LKNE			EMLA_LSHN			EMLA_LANK			EMLA_LHEE			EMLA_LTOE			EMLA_RTHI			EMLA_RKNE			EMLA_RSHN			EMLA_RANK			EMLA_RHEE			EMLA_RTOE		
		X1	Y1	Z1	X2	Y2	Z2	X3	Y3	Z3	X4	Y4	Z4	X5	Y5	Z5	X6	Y6	Z6	X7	Y7	Z7	X8	Y8	Z8	X9	Y9	Z9	X10	Y10	Z10	X11	Y11	Z11	X12	Y12	Z12	X13	Y13	Z13	X14	Y14	Z14	X15	Y15	Z15	X16	Y16	Z16	X17	Y17	Z17	X18	Y18	Z18	X19	Y19	Z19	X20	Y20	Z20	X21	Y21	Z21	X22	Y22	Z22	X23	Y23	Z23	X24	Y24	Z24	X25	Y25	Z25	X26	Y26	Z26	X27	Y27	Z27	X28	Y28	Z28	X29	Y29	Z29	X30	Y30	Z30	X31	Y31	Z31	X32	Y32	Z32	X33	Y33	Z33	X34	Y34	Z34	X35	Y35	Z35	X36	Y36	Z36	X37	Y37	Z37	X38	Y38	Z38	X39	Y39	Z39	X40	Y40	Z40	X41	Y41	Z41
																																																																																																																												
17	0.543	283.34702	1642.98019	-1927.02148	113.76294	1640.08514	-1921.83197	292.83848	1621.09634	-2076.89499	98.09006	1620.35904	-2072.86301	285.50209	1403.89755	-1974.78363	135.31686	1392.73544	-1962.40082	265.86624	1450.3949	-2122.30301	110.35175	1439.44992	-2108.99078	199.53947	1273.68675	-2162.65457	213.09423	1333.10059	-1930.11368	211.0408	1230.0824	-1907.35519	405.03143	1428.21732	-2039.33243	465.55607	1248.27301	-2061.54694	490.86437	1107.54219	-2065.97122	492.78618	970.01106	-2049.64401	419.33437	834.90479	-1950.44327	469.04476	809.8185	-2013.63831	470.07687	782.45399	-1948.59558	7.43331	1420.63141	-2019.31274	-47.4956	1225.12917	-2010.11414	-64.22638	1081.58203	-2021.12778	-64.91061	979.7937	-2018.27377	8.37101	829.10263	-1905.86319	-41.07347	803.48129	-1971.07132	-50.15417	777.52678	-1911.92337	313.46884	988.96927	-1939.22211	77.38875	976.58646	-1949.43924	289.11709	1015.45502	-2137.39288	113.19564	1017.5087	-2130.24734	332.97657	729.03244	-2133.72116	337.57378	522.9715	-2097.93625	309.76643	340.61287	-2093.18604	308.43813	165.82155	-2170.89752	241.00128	87.12374	-2230.74799	277.12978	74.23212	-2033.85025	83.45874	714.28062	-2147.81387	44.25961	512.11632	-2097.93015	81.32669	290.25389	-2096.56204	42.54272	132.31166	-2180.24704	98.75904	79.30999	-2232.72263	58.69085	71.81242	-2032.7272
18	0.577	284.45353	1642.93427	-1926.04919	114.73195	1639.92188	-1920.94879	293.98193	1621.17279	-2075.8725	99.20054	1620.41748	-2072.01004	286.52718	1403.80081	-1973.88458	136.2952	1392.73254	-1961.86676	267.08237	1450.15533	-2121.17889	111.84508	1439.28726	-2108.21365	200.86716	1273.70865	-2161.97586	214.35846	1333.14163	-1929.35745	211.978	1230.06241	-1906.62979	406.17123	1428.07877	-2038.27728	466.75186	1248.2106	-2060.62439	492.13161	1107.48711	-2065.06622	494.11591	969.9485	-2048.93417	420.79128	834.52232	-1950.06256	470.52635	809.67339	-2013.28232	471.63902	782.26814	-1948.52844	8.56986	1420.62088	-2018.90579	-46.43049	1225.2655	-2009.70612	-63.13933	1081.56723	-2020.53375	-63.74351	979.69658	-2017.40463	9.7988	829.34486	-1904.6196	-39.53384	803.59955	-1969.69345	-48.51813	777.78809	-1910.45395	314.0218	989.01573	-1938.29559	78.12363	976.60667	-1949.20334	290.39389	1015.44716	-2136.68015	114.44143	1017.65724	-2129.93652	333.81695	728.91151	-2133.26416	338.0706	522.87022	-2097.72141	310.04835	340.5275	-2093.06198	308.52255	165.83818	-2170.85907	240.93042	87.15714	-2230.71548	277.13518	74.22178	-2033.89221	84.3387	714.26376	-2147.55508	44.89859	512.11823	-2097.69974	81.72341	290.21097	-2096.44623	42.81416	132.44514	-2180.2594	99.0463	79.33552	-2232.65244	58.73647	71.84832	-2032.78122
19	0.61	285.43711	1642.75452	-1925.01129	115.83921	1639.66354	-1920.0795	295.18581	1621.25641	-2074.88571	100.38806	1620.38666	-2071.25214	287.27962	1403.62045	-1973.19611	137.34632	1392.66464	-1961.26266	268.47626	1450.18311	-2120.50339	113.14276	1439.2421	-2107.70142	202.20747	1273.62244	-2161.34521	215.22791	1332.9129	-1928.69797	212.73815	1229.8806	-1906.01273	407.31964	1427.86682	-2037.18445	468.00167	1247.9689	-2059.60297	493.34023	1107.28798	-2064.18793	495.47844	969.77745	-2048.37494	422.25502	834.04167	-1949.95514	472.16042	809.31847	-2013.16803	473.13881	781.79665	-1948.32169	9.66916	1420.52902	-2018.61725	-45.25843	1225.17357	-2009.39545	-62.04174	1081.45226	-2020.00275	-62.53509	979.56741	-2016.65405	11.127	829.72549	-1903.20786	-38.21725	803.67966	-1968.45062	-47.07098	777.97745	-1908.9798	314.77854	988.89069	-1937.70538	78.71261	976.37833	-1949.17633	291.53599	1015.43678	-2135.98846	115.63389	1017.66037	-2129.61182	334.73881	728.80981	-2132.65869	338.49815	522.67967	-2097.17972	310.24921	340.40333	-2092.74612	308.64162	165.77974	-2170.72632	240.94437	87.17596	-2230.68634	277.09665	74.20134	-2033.95569	85.39658	714.10286	-2147.33612	45.43501	512.00359	-2097.52655	81.99072	290.15392	-2096.30035	42.99783	132.44593	-2180.25055	99.21369	79.32651	-2232.61139	58.77142	71.84946	-2032.81815
20	0.643	286.34811	1642.50992	-1923.92136	116.64305	1639.4191	-1919.46793	296.51865	1621.28906	-2073.84201	101.68457	1620.39627	-2070.67963	288.28768	1403.29391	-1972.30072	138.32017	1392.33414	-1960.76248	269.73955	1450.02563	-2119.5816	114.3823	1439.16931	-2107.20169	203.49321	1273.54744	-2160.80994	216.03439	1332.64923	-1928.10684	213.48427	1229.55582	-1905.46951	408.45165	1427.54791	-2036.09177	469.123	1247.68074	-2058.50021	494.49596	1107.01218	-2063.26767	496.97128	969.57146	-2047.9306	424.15604	833.41026	-1949.86084	473.92696	808.93166	-2013.14453	474.92638	781.19888	-1948.36227	10.78058	1420.37125	-2018.33527	-44.22696	1224.98497	-2009.0596	-60.97368	1081.25778	-2019.71146	-61.32855	979.23569	-2015.97122	12.22731	829.94568	-1901.80801	-36.71124	803.61969	-1966.88995	-45.83292	778.09982	-1907.62726	315.51891	988.65082	-1937.13974	79.37753	976.51039	-1948.93494	292.52899	1015.30426	-2135.35141	116.61215	1017.63176	-2129.32404	335.45769	728.69095	-2132.0314	339.03297	522.58095	-2096.78146	310.49076	340.31361	-2092.47391	308.84893	165.75336	-2170.59189	241.11778	87.2379	-2230.72311	277.06154	74.1982	-2033.98651	86.19023	714.07478	-2147.03445	45.88445	512.10686	-2097.4617	82.19068	290.20515	-2096.20041	43.11989	132.53803	-2180.24261	99.34636	79.37055	-2232.5592	58.75758	71.84709	-2032.85095
21	0.677	287.17672	1642.23175	-1922.82181	117.45707	1639.29779	-1918.90366	297.80542	1621.14609	-2072.6976	102.99469	1620.38193	-2070.21484	289.29008	1403.08105	-1971.61667	139.16502	1392.08618	-1960.40436	271.07496	1449.935	-2118.92105	115.5914	1439.14642	-2106.75293	204.7168	1273.4742	-2160.33096	216.9165	1332.3761	-1927.60101	214.16842	1229.32266	-1904.99252	409.50714	1427.27707	-2035.14603	470.18871	1247.39548	-2057.54745	495.72453	1106.85188	-2062.41104	498.43517	969.41513	-2047.39304	425.65418	832.6667	-1950.01602	475.84118	808.58757	-2013.25333	476.70856	780.58746	-1948.53027	11.8092	1420.26031	-2018.12576	-43.17219	1224.78546	-2008.8028	-59.98962	1081.13449	-2019.487	-60.23975	979.02519	-2015.44296	13.23014	830.13878	-1900.67764	-35.51481	803.60313	-1965.79193	-44.88702	778.24356	-1906.50452	316.27951	988.40004	-1936.48987	79.91802	976.46217	-1948.77914	293.49308	1015.20615	-2134.68689	117.57099	1017.67433	-2128.97232	336.15685	728.666	-2131.64734	339.46453	522.4913	-2096.59744	310.79159	340.28225	-2092.40692	308.98127	165.7415	-2170.5835	241.20504	87.24851	-2230.7077	277.06308	74.19063	-2034.02817	86.75793	714.16916	-2146.75217	46.26825	512.21584	-2097.29919	82.40483	290.25539	-2096.05515	43.26775	132.64812	-2180.17197	99.48253	79.44855	-2232.48474	58.76194	71.86912	-2032.84912
22	0.71	288.00406	1642.01004	-1921.81839	118.31838	1639.14047	-1918.33679	299.08451	1621.01852	-2071.71844	104.23023	1620.41351	-2069.7583	290.2706	1402.9866	-1970.90302	140.08303	1392.10739	-1959.99176	272.22494	1449.76654	-2118.21075	116.76643	1439.08508	-2106.37726	205.87864	1273.38562	-2159.82956	217.83009	1332.27753	-1927.05475	214.80358	1229.20692	-1904.5018	410.53215	1427.06757	-2034.24149	471.24924	1247.20131	-2056.64383	496.78505	1106.70975	-2061.62064	499.79973	969.32335	-2047.02179	427.56645	832.13043	-1950.08423	477.65236	808.28278	-2013.41537	478.61198	780.1075	-1948.74268	12.77185	1420.2121	-2018.02444	-42.15026	1224.75769	-2008.56018	-58.88254	1081.00975	-2019.09561	-59.22813	979.05373	-2015.05142	14.04616	830.35912	-1899.68491	-34.55531	803.64159	-1965.01007	-44.08278	778.35556	-1905.68451	316.87216	988.29842	-1935.83649	80.55897	976.53549	-1948.50861	294.35675	1015.10269	-2134.12064	118.48262	1017.67403	-2128.65997	336.71043	728.62747	-2131.34399	339.86042	522.43427	-2096.52466	311.02499	340.16594	-2092.3201	309.03049	165.70438	-2170.6221	241.17493	87.2374	-2230.7254	277.10459	74.17364	-2034.08905	87.49887	714.10561	-2146.42502	46.648	512.17041	-2096.99005	82.58962	290.23426	-2095.85236	43.44043	132.70276	-2180.13306	99.68962	79.5077	-2232.41241	58.78284	71.85771	-2032.83539
